<?xml version="1.0" encoding="UTF-8"?><svg id="Layer_2" xmlns="http://www.w3.org/2000/svg" viewBox="0 0 423.9956 115.8984"><g id="Components"><g id="_2c426927-c2c0-48db-a36e-4e0b12b3ec68_5"><path d="m171.399,79.4619c-1.8457,2.0088-3.9072,3.7178-6.1865,5.1289-4.3418,2.6865-9.0908,4.0293-14.2461,4.0293-5.1289,0-9.877-1.3428-14.2461-4.0293-4.3955-2.7129-7.8691-6.3633-10.4189-10.9492-2.5518-4.6123-3.8262-9.6729-3.8262-15.1816,0-5.5352,1.2744-10.6094,3.8262-15.2227,2.5498-4.585,6.0234-8.248,10.4189-10.9893,4.3691-2.6865,9.1172-4.0293,14.2461-4.0293,5.1553,0,9.9043,1.3428,14.2461,4.0293,2.2793,1.4111,4.3145,3.0928,6.1045,5.0469l-9.3203,9.6465c-1.167-1.3838-2.293-2.4287-3.3779-3.1338-2.3887-1.6016-4.9395-2.4014-7.6523-2.4014s-5.2646.7998-7.6523,2.4014c-2.334,1.6006-4.1924,3.7178-5.5762,6.3486-1.3564,2.6602-2.0352,5.4277-2.0352,8.3037s.6924,5.6445,2.0762,8.3027c1.3838,2.6328,3.2422,4.749,5.5762,6.3496,2.333,1.6016,4.8701,2.4014,7.6113,2.4014s5.2773-.7998,7.6113-2.4014c1.248-.8408,2.415-1.9395,3.5-3.2969l9.3213,9.6465Z" style="fill:#fff;"/><path d="m182.7954,85.7715c-3.6904-1.9541-6.6211-4.627-8.792-8.0186-2.1973-3.4189-3.2969-7.2451-3.2969-11.4785,0-3.1748.6377-6.1318,1.9131-8.873,1.2754-2.7402,3.0254-5.1143,5.251-7.1221,2.252-2.0352,4.8164-3.5957,7.6924-4.6816,2.9316-1.085,5.9297-1.6279,8.9961-1.6279,3.0918,0,6.1055.543,9.0352,1.6279,2.8496,1.0322,5.4141,2.5791,7.6934,4.6406,2.252,2.0625,4.002,4.4502,5.25,7.1631,1.2754,2.7412,1.9121,5.6982,1.9121,8.873,0,3.2295-.623,6.1875-1.8711,8.873-1.248,2.7139-3.0117,5.1152-5.291,7.2041-2.3066,2.0625-4.8711,3.623-7.6934,4.6816-2.8496,1.1123-5.8613,1.668-9.0352,1.668-4.1523,0-8.0742-.9766-11.7637-2.9297Zm4.1523-12.0078c2.1426,2.0898,4.6797,3.1348,7.6113,3.1348,2.957,0,5.5078-1.0449,7.6504-3.1348,2.1719-2.0889,3.2578-4.585,3.2578-7.4893,0-1.8984-.5039-3.6484-1.5059-5.25-1.0059-1.6006-2.3477-2.876-4.0312-3.8262-1.6543-.9492-3.4453-1.4248-5.3711-1.4248-1.873,0-3.6504.4756-5.332,1.4248-1.6836.9502-3.0273,2.2256-4.0293,3.8262-1.0049,1.6016-1.5068,3.3516-1.5068,5.25,0,2.9043,1.085,5.4004,3.2568,7.4893Z" style="fill:#fff;"/><path d="m238.4761,76.8164h.7324c3.3105-.1084,4.9658-2.4014,4.9658-6.8789v-24.2578h13.0244v24.2578c0,11.8037-5.9971,18.0312-17.9902,18.6826h-.7324c-11.9941-.6514-17.9902-6.8789-17.9902-18.6826v-24.2578h13.0244v24.2578c0,4.4775,1.6553,6.7705,4.9658,6.8789Z" style="fill:#fff;"/><path d="m280.6021,56.5469c-.6777-.4609-1.5605-.7188-2.6455-.7734h-.7324c-3.3105.1367-4.9658,2.4424-4.9658,6.9199v24.665h-13.0244v-24.665c0-11.8584,5.9961-18.0859,17.9902-18.6826h.7324c.8955.0273,1.7773.1084,2.6455.2441v12.292Z" style="fill:#fff;"/><path d="m289.231,74.252c2.5771,2.5781,5.7246,3.8672,9.4424,3.8672,3.8809,0,5.8213-1.1396,5.8213-3.4189,0-1.1934-1.0723-2.0762-3.2158-2.6455-1.5205-.3525-3.9346-.9629-7.2451-1.832-2.6865-.7051-4.9521-2.0078-6.7969-3.9072-1.8184-1.8721-2.7275-4.748-2.7275-8.6289,0-2.9844.7461-5.5078,2.2393-7.5703,1.5186-2.0615,3.4863-3.582,5.9014-4.5586,2.4687-1.0039,5.1689-1.5059,8.0996-1.5059,1.6553,0,3.3379.2305,5.0469.6914,1.8457.5703,3.501,1.2764,4.9658,2.1172,1.6006.8945,3.0117,1.8994,4.2334,3.0117l-7.1641,7.123c-2.0898-1.5742-4.3691-2.3613-6.8379-2.3613-2.958,0-4.4365.8281-4.4365,2.4834,0,1.4922,1.0996,2.5371,3.2969,3.1338,2.415.6514,4.8438,1.2617,7.2861,1.8311,2.6855.6787,4.9248,1.9277,6.7158,3.7451,1.8174,1.8457,2.7266,4.749,2.7266,8.71,0,2.958-.7871,5.5088-2.3604,7.6523-1.5742,2.1709-3.6777,3.7852-6.3086,4.8438-2.6328,1.1123-5.3594,1.668-8.1816,1.668-2.3604,0-4.4912-.1895-6.3896-.5693-1.9004-.3535-3.6777-.9492-5.332-1.791-1.71-.8408-3.501-1.9668-5.373-3.3779l6.5938-8.7109Z" style="fill:#fff;"/><path d="m362.5367,57.4424c1.2207,2.7412,1.8311,5.6719,1.8311,8.792v.3662c0,.1357-.0137.2852-.041.4473l-.0811.6924h-5.0469v.0811h-28.0029c.3252,2.2793,1.3154,4.2471,2.9707,5.9023,2.0898,2.0625,4.5312,3.0928,7.3271,3.0928,2.8213,0,5.2637-1.0303,7.3262-3.0928l.0811-.082.1221-.1621.1221-.123.082-.1221,7,10.0127c-2.0078,1.6289-4.043,2.8633-6.1055,3.7041-2.7676,1.085-5.6436,1.6279-8.6279,1.6279-4.0439,0-7.8018-.9629-11.2754-2.8896-3.5547-1.9531-6.3633-4.626-8.4248-8.0186-2.1162-3.3916-3.1748-7.2041-3.1748-11.4365,0-3.1748.6104-6.1055,1.832-8.792,1.2207-2.7129,2.9023-5.0742,5.0469-7.082,2.1699-2.0615,4.6123-3.623,7.3262-4.6807,2.7939-1.085,5.6846-1.6279,8.6699-1.6279s5.8604.543,8.6279,1.6279c2.7412,1.0576,5.1963,2.6045,7.3672,4.6396,2.1436,1.9814,3.8262,4.3555,5.0479,7.123Zm-21.043-1.6279c-1.8184,0-3.5283.4619-5.1289,1.3838-.9766.5967-1.9268,1.4385-2.8496,2.5234h15.9561c-.9229-1.085-1.873-1.9268-2.8496-2.5234-1.6016-.9219-3.3105-1.3838-5.1279-1.3838Z" style="fill:#fff;"/><path d="m366.4029,29.6025l12.9844-.041v57.7158l-12.9844.1621V29.6025Z" style="fill:#fff;"/><path d="m411.0523,86.585c-2.4697,1.0039-4.749,1.6006-6.8379,1.791-12.835,1.3564-19.252-4.7617-19.252-18.3564v-24.2998h13.0244v23.4043c0,2.4697.5693,4.3418,1.709,5.6172,1.1396,1.248,2.7412,1.8721,4.8037,1.8721,1.9795,0,3.5674-.6377,4.7617-1.9131,1.1396-1.2754,1.709-3.1338,1.709-5.5762v-23.3633l13.0254-.041v46.5635c0,5.0469-1.791,9.3887-5.373,13.0244-1.6279,1.6289-3.8662,2.958-6.7158,3.9893-2.5781.9219-5.1689,1.3838-7.7744,1.3838h-2.1572c-5.8066-.1084-10.46-1.8994-13.96-5.373-2.2793-2.334-3.6904-4.4229-4.2334-6.2676l11.7627-6.8789c.1084,2.0615.9092,3.7988,2.4014,5.21,1.4922,1.4102,3.2695,2.1162,5.332,2.1162,1.6006,0,3.0664-.4609,4.3965-1.3838,1.2471-.8408,2.1836-2.0078,2.8076-3.5l.041-.1221.0811-.2041.082-.2842.0811-.2852c.1084-.2441.1758-.5566.2031-.9365,0-.0547.0137-.1221.041-.2031v-.4072h.041v-5.5762Z" style="fill:#fff;"/><g id="_0f2dd203-d443-4259-a687-a39a72cdf2ce_4"><path d="m104.6002,37.4023v.6055c0,6.6992-5.2997,12.1973-11.9,12.5977h-2.5l-5.2002-.0977h-.6995l-5.3003-.1074-19.7998-.4004h-.1001l-1.4001-.8008-4.8999-2.793L19.6002,27.8027l-.8002-.498c-1.9995-1.0059-3.9996-1.6016-6.3-1.6016-4.4,0-8.4998,2.0996-10.9998,5.7031,1.0999-2.8027,3.2001-5.1074,5.9003-6.8066l2.1997-1.3965L43.3002,2.4023c2.5-1.6016,5.4004-2.4023,8.2001-2.4023h.8002c2.2998.1074,4.5996.8008,6.6998,1.9043l4.4,2.4023,32.8998,17.5977c.5005.3027,1.0004.5957,1.5002.8984,3.2001,2.3047,5.4999,5.7031,6.4001,9.5996.1996.8984.2997,1.9043.2997,2.9004l.1001,2.0996Z" style="fill:#fff;"/><path d="m104.5001,35.3027c0-.9961-.1001-2.002-.2997-2.9004-.9003-3.8965-3.2001-7.2949-6.4001-9.5996-.4999-.3027-.9998-.5957-1.5002-.8984L63.4003,4.3066l-4.4-2.4023c-2.1002-1.1035-4.4-1.7969-6.6998-1.9043h-.8002c-2.7997,0-5.7001.8008-8.2001,2.4023L9.6002,23.2031l-2.1997,1.3965c-2.7002,1.6992-4.8004,4.0039-5.9003,6.8066,2.5-3.6035,6.5997-5.7031,10.9998-5.7031,2.3004,0,4.3005.5957,6.3,1.6016l.8002.498,33.2001,18.6035,4.8999,2.793,1.4001.8008h.1001l19.7998.4004,5.3003.1074h.6995l5.2002.0977h2.5c6.6003-.4004,11.9-5.8984,11.9-12.5977v-.6055l-.1001-2.0996Z" style="fill:#fff;"/><path d="m67.0001,110.8008l-3.5999,2.207-.9003.5957c-.6.4004-1.2994.7031-1.9995.9961-1.3.6055-2.7002,1.0059-4.1003,1.2012-.8002,0-1.4996.0977-2.2998.0977-.6,0-1.2,0-1.7999-.0977-1.9-.1953-3.8-.8008-5.4999-1.6992l-13.4003-7.1973-.1001-.0977c-.4999-.2051-1.0999-.6055-1.7999-1.0059-3.8-2.1973-10.2002-6.2988-13.1-8.0957-.3998-.3027-.7001-.498-.9003-.7031-1.4996-.8984-2.6996-2.1973-3.4998-3.7012-.9998-1.7969-1.5002-3.7012-1.5002-5.6934,0-3.6035,1.7004-7.0996,4.6002-9.209.3003-.293.6-.498.9998-.6934l18.0005-12.1973,1.7999-1.1035,7.8998-5.4004,5.4999-3.7012v42.998c.5005,6.6016,5.5005,11.8066,12.0001,12.5.4999.0977,1.0004.2051,1.5002.2051.7001,0,1.4996-.1074,2.1997-.2051Z" style="fill:#fff;"/><path d="m57.3004,50.1074l-1.0004.5957-2.9999,2.002-4.4,2.998-3.7,2.5-7.8998,5.3027-1.7004,1.2012-18.1,12.1973c-.2997.1953-.6.4004-.9998.7031-2.9999,2.1973-5,5.8984-5,10,0,2.2949.6,4.2969,1.5997,6.1914.4004.7031.8002,1.3086,1.4001,1.9043.2002.3027.4004.498.7001.8008.6.5957,1.3,1.1035,2.0001,1.6016l-3.5999-1.8066v-.0977l-2.3999-1.2012-1.7004-.8984c-2.9999-1.6992-5.3998-4.1992-6.7999-7.1973-.8997-1.9043-1.4001-4.0039-1.4001-6.2012l-.6-16.6016v-.5957l-.2997-11.1035-.1001-3.3984-.3003-9.1016v-.5957c0-2.0996.5005-4.0039,1.4001-5.8008.3003-.6055.7001-1.2012,1.2-1.8066,2.2003-2.998,5.9003-5,9.8999-5,2.1002,0,4.0002.5078,5.8002,1.4062l.9003.498,33.1,18.7012,2.0996,1.2012,2.7002,1.4941.2002.1074Z" style="fill:#fff;"/><polygon points="13.6005 96.2012 13.6005 96.2988 11.2006 95 13.6005 96.2012" style="fill:#fff;"/><path d="m105.8002,78.1055c0,.9961-.1001,2.002-.2997,2.9004-.6,3.3008-2.3004,6.2012-4.7003,8.4961-.8002.7031-1.5997,1.2988-2.3999,1.7969l-26.4001,16.4062-1.3.8008c-1.7999.8984-3.8,1.3965-5.8997,1.3965h-1.4001c-5.9003-.7031-10.7001-5.498-11.0999-11.6016v-35l.9998.6055,13.7,7.6953,13.1,7.4023.3003.1953,6.2,3.5059c2.0001.9961,4.1998,1.6016,6.4996,1.6016,5,0,9.6002-2.8027,12.0001-7.3047.2002-.3027.3003-.5957.4999-.8984.1001.5957.2002,1.2988.2002,2.002Z" style="fill:#fff;"/><path d="m52.2003,97.4023c0,.3027.1001.6055.1001.8984v-1.8945c0,.293-.1001.6934-.1001.9961Z" style="fill:#fff;"/><path d="m105.1001,74.1992c-.1996.8008-.4999,1.6016-.8997,2.4023-2.1002,4.0039-6.3,6.6992-11.1005,6.6992-2.1997,0-4.1998-.498-5.9998-1.4941l-6.2-3.5059-.3003-.1953-17.1997-9.5996-5.9998-3.3984h2.0996l22.3004.4004,5.1996.0977h.7001l4.7998.0977c.2002,0,.6079.0081.8075.0081.4004,0,.8954.0212,1.3424.031,1.0957.127,1.501.1758,1.9504.3613.4999.0977.9998.3027,1.4001.498.6.2051,1.0999.498,1.5997.8008s.9998.6055,1.5002.9961c.3998.3027.7001.6055.9998,1.0059.2002.1953.3998.3027.4999.498.1001.0977.3003.3027.4004.498.6.8008,1.0999,1.6016,1.4996,2.4023.3003.498.4004.8984.6,1.3965Z" style="fill:#fff;"/></g></g></g></svg>