<svg width="33" height="29" viewBox="0 0 33 29" fill="none" xmlns="http://www.w3.org/2000/svg">
<g id="everytime">
<path id="everytime_2" d="M2.93945 0.589844C2.11914 0.589844 1.42415 0.874675 0.854492 1.44434C0.284831 2.014 0 2.70898 0 3.5293V21.0293C0 21.8496 0.284831 22.5446 0.854492 23.1143C1.42415 23.6839 2.11914 23.9688 2.93945 23.9688H13.5352C14.4922 25.3359 15.7113 26.4069 17.1924 27.1816C18.6735 27.9564 20.2344 28.3438 21.875 28.3438C23.7435 28.3438 25.4525 27.8766 27.002 26.9424C28.5514 26.0081 29.7933 24.7663 30.7275 23.2168C31.6618 21.6673 32.1289 19.9583 32.1289 18.0898C32.1289 16.7682 31.8783 15.4922 31.377 14.2617C30.8757 13.0312 30.1465 11.9375 29.1895 10.9805V6.46875C29.1895 5.64844 28.9046 4.95345 28.335 4.38379C27.7653 3.81413 27.0703 3.5293 26.25 3.5293H14.6289L11.6895 0.589844H2.93945ZM21.875 10.8438C23.1966 10.8438 24.4157 11.1628 25.5322 11.8008C26.6488 12.4388 27.5374 13.3161 28.1982 14.4326C28.859 15.5492 29.1895 16.7682 29.1895 18.0898C29.1895 19.4115 28.859 20.6305 28.1982 21.7471C27.5374 22.8636 26.6488 23.7523 25.5322 24.4131C24.4157 25.0739 23.1966 25.4043 21.875 25.4043C20.5534 25.4043 19.3343 25.0739 18.2178 24.4131C17.1012 23.7523 16.224 22.8636 15.5859 21.7471C14.9479 20.6305 14.6289 19.4115 14.6289 18.0898C14.6289 16.7682 14.9479 15.5492 15.5859 14.4326C16.224 13.3161 17.1012 12.4388 18.2178 11.8008C19.3343 11.1628 20.5534 10.8438 21.875 10.8438ZM20.4395 12.2793V19.5938L25.7031 22.7383L26.7969 20.9609L22.627 18.5V12.2793H20.4395Z" fill="#319049"/>
</g>
</svg>
