<svg width="35" height="32" viewBox="0 0 35 32" fill="none" xmlns="http://www.w3.org/2000/svg">
<g id="free">
<path id="Vector" d="M34.9984 15.4786V16.5168C34.9784 16.5542 34.946 16.5906 34.9406 16.6301C34.8396 17.3426 34.5361 17.9722 34.0738 18.5351C33.7449 18.9354 33.4052 19.3276 33.073 19.7265C32.6113 20.2811 32.3947 20.9194 32.4028 21.6202C32.4093 22.1815 32.4708 22.7429 32.4681 23.3042C32.459 25.0811 31.5662 26.3324 29.8996 27.1019C29.4173 27.3244 28.8939 27.4439 28.3733 27.5428C27.1965 27.7668 26.3124 28.3471 25.7275 29.3494C25.5244 29.698 25.289 30.0338 25.0308 30.348C24.0479 31.5435 22.7549 32.0854 21.1558 31.9767C20.4494 31.9285 19.8164 31.6594 19.1753 31.4179C18.5035 31.1652 17.8316 30.9488 17.0933 31.0514C16.4906 31.1354 15.9392 31.3702 15.384 31.5886C13.7066 32.2479 12.1285 32.1459 10.6735 31.056C10.0049 30.5551 9.60524 29.8523 9.16832 29.1858C8.66335 28.4153 7.99798 27.8786 7.05826 27.6628C6.65158 27.5695 6.25085 27.4526 5.84633 27.349C4.33035 26.9615 3.30043 26.0664 2.75226 24.6735C2.45684 23.924 2.48438 23.1422 2.57187 22.3697C2.69987 21.2398 2.48924 20.2273 1.64727 19.3686C1.33025 19.0457 1.05049 18.6868 0.776671 18.3285C-0.267289 16.9622 -0.258108 14.9896 0.799895 13.6331C1.1315 13.2081 1.48795 12.8006 1.83899 12.3894C2.34396 11.7978 2.61778 11.1283 2.5978 10.3624C2.58213 9.76825 2.52111 9.17409 2.53731 8.58096C2.58321 6.86307 3.46353 5.644 5.08267 4.90527C5.72968 4.60998 6.44419 4.50694 7.12955 4.32085C7.95316 4.09734 8.59422 3.65133 9.05167 2.96131C9.3244 2.55016 9.6074 2.14414 9.89958 1.7453C10.8912 0.390887 12.6572 -0.259152 14.359 0.0991895C15.0038 0.235041 15.6038 0.495979 16.2152 0.721545C17.021 1.01837 17.8219 1.05887 18.6363 0.766145C19.1667 0.57544 19.6965 0.381146 20.2333 0.208384C21.9832 -0.355017 23.9739 0.252984 25.0519 1.68225C25.3565 2.0857 25.6411 2.50351 25.9187 2.9244C26.401 3.65389 27.0669 4.13527 27.9542 4.33725C28.2837 4.4121 28.6077 4.51156 28.9371 4.58589C30.2906 4.89245 31.3334 5.58555 32.0042 6.76259C32.5583 7.73458 32.5103 8.77782 32.4336 9.82567C32.4098 10.1497 32.3785 10.4721 32.4266 10.7956C32.5221 11.4441 32.8262 11.9952 33.2599 12.5007C33.8037 13.1348 34.4189 13.7285 34.7111 14.5246C34.8256 14.8368 34.9049 15.1608 35 15.4797L34.9984 15.4786ZM17.4914 3.8728C10.4532 3.90458 4.67168 9.39146 4.72946 16.0441C4.78779 22.7295 10.4515 28.1144 17.507 28.1077C24.6041 28.1011 30.2727 22.6557 30.2587 15.9887C30.2447 9.18076 24.4761 3.92714 17.4908 3.8728H17.4914Z" fill="#319049"/>
<path id="Vector_2" d="M29.0921 16.3099C28.882 22.5755 23.3268 27.2524 17.049 27.0012C10.5007 26.7392 5.72102 21.5153 5.90788 15.7142C6.11311 9.33016 11.7142 4.79374 17.8467 4.99418C24.5588 5.2136 29.2882 10.5631 29.0927 16.3104L29.0921 16.3099ZM13.0563 15.989C13.0563 16.7128 13.0541 17.4367 13.0568 18.1605C13.0584 18.5758 13.3058 18.8506 13.6585 18.8393C14.0101 18.828 14.2223 18.5768 14.2228 18.1672C14.2228 17.1732 14.2218 16.1797 14.2212 15.1856C14.2212 14.5161 14.5732 14.2072 15.2771 14.2588C15.3775 14.2665 15.4839 14.2823 15.5746 14.3218C15.8404 14.4377 15.9678 14.6392 15.937 14.9201C15.9079 15.1882 15.7491 15.3543 15.4764 15.4148C15.3781 15.4368 15.2733 15.4343 15.1712 15.4399C14.5896 15.4717 14.3433 15.8854 14.6371 16.3581C15.0821 17.0732 15.5363 17.7837 15.9905 18.4938C16.2 18.8208 16.5257 18.9223 16.8228 18.7629C17.1193 18.604 17.1911 18.2436 16.9853 17.9129C16.725 17.4951 16.4712 17.0732 16.1903 16.6677C16.0607 16.4806 16.0791 16.4042 16.2843 16.2837C16.927 15.9069 17.2262 15.1964 17.0782 14.4874C16.9426 13.8384 16.3615 13.3196 15.6292 13.1986C15.0303 13.0992 14.4264 13.1694 13.8248 13.1555C13.2853 13.1432 13.0601 13.3657 13.0574 13.8825C13.0536 14.5848 13.0563 15.2866 13.0563 15.989ZM22.6912 15.9946H22.6944C22.6944 16.7082 22.6933 17.4218 22.6944 18.1354C22.6955 18.6363 22.9083 18.8398 23.4408 18.8418C24.2952 18.8454 25.1496 18.8449 26.004 18.8444C26.0942 18.8444 26.1876 18.8418 26.2746 18.8213C26.5943 18.746 26.7579 18.5302 26.7325 18.2292C26.7082 17.935 26.5036 17.753 26.1633 17.7453C25.708 17.7356 25.2522 17.7381 24.7964 17.7371C23.8351 17.735 23.8437 17.7355 23.8507 16.82C23.8523 16.5975 23.9301 16.5488 24.1461 16.5529C24.5323 16.5606 24.9206 16.5959 25.3046 16.5298C25.6222 16.4755 25.768 16.2766 25.7685 15.9808C25.7696 15.6983 25.5822 15.5035 25.2706 15.4645C25.1134 15.445 24.9525 15.4532 24.7937 15.4414C24.4907 15.4199 24.084 15.5717 23.9112 15.3815C23.7308 15.1826 23.8793 14.8022 23.8534 14.5028C23.8356 14.2972 23.9215 14.247 24.1262 14.2501C24.798 14.2608 25.4704 14.2593 26.1422 14.2531C26.4814 14.2501 26.6942 14.0686 26.7288 13.781C26.7655 13.4795 26.584 13.2442 26.2508 13.1709C26.1741 13.154 26.0931 13.1514 26.0137 13.1514C25.148 13.1504 24.2822 13.1479 23.4165 13.1535C22.9148 13.1566 22.6912 13.3765 22.6901 13.8533C22.6885 14.5669 22.6901 15.2805 22.6901 15.9941L22.6912 15.9946ZM17.8883 15.992C17.8883 15.992 17.891 15.992 17.8926 15.992C17.8926 16.7482 17.8862 17.5049 17.8953 18.261C17.8997 18.6009 18.0752 18.8208 18.4176 18.8285C19.4075 18.8516 20.398 18.8506 21.388 18.8311C21.7255 18.8244 21.9653 18.523 21.9383 18.2385C21.9108 17.9488 21.6775 17.7499 21.3297 17.7427C20.8857 17.7335 20.4418 17.7376 19.9978 17.7371C19.0289 17.7366 19.036 17.7371 19.0511 16.8271C19.0549 16.6159 19.1186 16.5483 19.3427 16.5529C19.7283 16.5611 20.1177 16.6005 20.5001 16.5267C20.7982 16.4688 21.0024 16.233 20.9705 15.9746C20.9354 15.6906 20.782 15.4835 20.4537 15.4655C20.1361 15.4481 19.8169 15.445 19.4983 15.4455C18.9555 15.4471 19.0543 15.445 19.056 15.0385C19.0565 14.8657 19.0705 14.6909 19.05 14.5202C19.023 14.2941 19.1262 14.2465 19.3422 14.2506C19.9908 14.2618 20.64 14.2536 21.2892 14.2577C21.5095 14.2593 21.6877 14.1947 21.8179 14.0194C21.9475 13.8445 21.9696 13.6656 21.8659 13.4729C21.7347 13.2289 21.5019 13.1545 21.2411 13.153C20.3532 13.1479 19.4648 13.1463 18.5769 13.153C18.1162 13.1566 17.8953 13.3709 17.8905 13.8189C17.8824 14.5428 17.8883 15.2671 17.8883 15.991V15.992ZM8.26422 15.992C8.26422 16.7369 8.26638 17.4823 8.2626 18.2272C8.26152 18.3948 8.2788 18.5496 8.42084 18.6691C8.605 18.8249 8.80753 18.8875 9.04787 18.7942C9.31466 18.6901 9.42052 18.482 9.42646 18.2303C9.43726 17.7771 9.44266 17.3229 9.42484 16.8697C9.41565 16.6359 9.47506 16.5436 9.74078 16.5565C10.1718 16.5775 10.6049 16.5626 11.0375 16.5611C11.5565 16.559 11.8319 16.3601 11.8255 15.9936C11.8195 15.6327 11.5419 15.4394 11.0251 15.4363C10.809 15.4353 10.5925 15.4363 10.3764 15.4358C9.39459 15.4327 9.40161 15.4327 9.42322 14.4982C9.42808 14.2911 9.50207 14.2475 9.70243 14.2506C10.3505 14.2618 10.9991 14.2588 11.6478 14.2547C12.0485 14.2521 12.3045 14.0317 12.3045 13.7041C12.3045 13.4067 12.0388 13.1566 11.6667 13.1525C10.7453 13.1412 9.82341 13.1407 8.90204 13.1525C8.47377 13.1576 8.2653 13.3796 8.26368 13.7887C8.26044 14.5228 8.2626 15.2574 8.26368 15.9915L8.26422 15.992ZM17.4957 22.3602V22.3617C18.9069 22.3617 20.3181 22.3617 21.7293 22.3617C21.8762 22.3617 22.0237 22.3725 22.1587 22.2899C22.412 22.1346 22.5016 21.9121 22.4195 21.6471C22.3245 21.3405 22.0642 21.2549 21.7531 21.2549C18.9193 21.2564 16.0856 21.2549 13.2523 21.2569C12.8116 21.2569 12.5632 21.4569 12.5551 21.8024C12.5465 22.1618 12.79 22.3586 13.2631 22.3591C14.6743 22.3617 16.0856 22.3602 17.4968 22.3602H17.4957Z" fill="#319049"/>
</g>
</svg>
