<svg width="36" height="36" viewBox="0 0 36 36" fill="none" xmlns="http://www.w3.org/2000/svg">
<g id="Icon" clip-path="url(#clip0_507_85857)">
<path id="Vector" d="M16.4961 31.125L19.4355 29.6895L22.375 31.125V20.9395H16.4961V31.125ZM22.375 13.625V10.6855L19.4355 12.1895L16.4961 10.6855V13.625L13.625 15.0605L16.4961 16.5645V19.4355L19.4355 18L22.375 19.4355V16.5645L25.2461 15.0605L22.375 13.625ZM26.75 4.875H3.37109C2.59635 4.875 1.92415 5.15983 1.35449 5.72949C0.784831 6.29915 0.5 6.99414 0.5 7.81445V22.375C0.5 23.1953 0.784831 23.8903 1.35449 24.46C1.92415 25.0296 2.59635 25.3145 3.37109 25.3145H13.625V22.375H3.37109V7.81445H26.75V22.375H25.2461V25.3145H26.75C27.5247 25.3145 28.1969 25.0296 28.7666 24.46C29.3363 23.8903 29.6211 23.1953 29.6211 22.375V7.81445C29.6211 6.99414 29.3363 6.29915 28.7666 5.72949C28.1969 5.15983 27.5247 4.875 26.75 4.875ZM13.625 12.1895H4.875V9.25H13.625V12.1895ZM10.6855 16.5645H4.875V13.625H10.6855V16.5645ZM13.625 20.9395H4.875V18H13.625V20.9395Z" fill="#319049"/>
</g>
<defs>
<clipPath id="clip0_507_85857">
<rect width="35" height="35" fill="white" transform="matrix(1 0 0 -1 0.5 35.5)"/>
</clipPath>
</defs>
</svg>
