<svg width="31" height="31" viewBox="0 0 31 31" fill="none" xmlns="http://www.w3.org/2000/svg">
<g id="support">
<path id="support_2" d="M15.5 -1.20699e-06C12.7014 -1.20699e-06 10.1046 0.57163 7.70964 1.71489C5.31467 2.85815 3.43099 4.39716 2.05859 6.33191C0.686198 8.26667 0 10.3773 0 12.6638V22.5574C0 23.7007 0.49783 24.6901 1.49349 25.5255C2.48915 26.361 3.71354 26.7787 5.16667 26.7787H10.3333V15.5H3.47135V12.6638C3.47135 10.905 4.00955 9.26702 5.08594 7.75C6.16233 6.23298 7.61545 5.03475 9.44531 4.15532C11.2752 3.27589 13.2934 2.83617 15.5 2.83617C17.7066 2.83617 19.7248 3.27589 21.5547 4.15532C23.3845 5.03475 24.8377 6.23298 25.9141 7.75C26.9905 9.26702 27.5286 10.905 27.5286 12.6638V15.5H20.6667V26.7787H27.5286V28.1638H15.5V31H25.8333C27.2865 31 28.5108 30.5823 29.5065 29.7468C30.5022 28.9113 31 27.922 31 26.7787V12.6638C31 10.3773 30.3003 8.26667 28.901 6.33191C27.5017 4.39716 25.6181 2.85815 23.25 1.71489C20.8819 0.57163 18.2986 -1.20699e-06 15.5 -1.20699e-06Z" fill="#319049"/>
</g>
</svg>
