<svg width="33" height="29" viewBox="0 0 33 29" fill="none" xmlns="http://www.w3.org/2000/svg">
<g id="teram">
<path id="Vector" d="M16.0498 28.3434C14.1263 28.3091 12.2093 28.204 10.3378 27.6751C9.66165 27.4841 9.0068 27.2288 8.3954 26.8597C7.54181 26.3443 7.36724 25.9019 7.52829 24.8798C7.70982 23.7283 7.84669 22.5689 8.00651 21.414C8.19132 20.0792 8.28476 18.7189 8.8937 17.4932C10.0723 15.1211 11.8962 13.6648 14.4205 13.3591C16.0511 13.1616 17.7128 13.0869 19.2884 13.7434C21.7873 14.7846 23.349 16.7029 23.8346 19.5157C24.1247 21.196 24.3108 22.8968 24.5431 24.5884C24.5714 24.7955 24.5829 25.007 24.6288 25.2097C24.7787 25.8749 24.5079 26.3335 24.0067 26.6852C23.158 27.2804 22.2032 27.5913 21.2238 27.8254C19.5207 28.2318 17.7869 28.3143 16.049 28.3438L16.0498 28.3434Z" fill="#319049"/>
<path id="Vector_2" d="M16.0495 12.482C12.9584 12.5098 10.3801 9.72396 10.4501 6.35066C10.5153 3.21791 13.083 0.558001 16.0941 0.590132C19.2344 0.623565 21.7 3.3143 21.6718 6.67674C21.6451 9.86377 19.0868 12.5054 16.0499 12.482H16.0495Z" fill="#319049"/>
<path id="Vector_3" d="M22.7549 14.1344C25.7521 12.1978 29.8684 13.6146 31.3445 17.0804C31.7522 18.0378 31.8124 19.0786 32.0554 20.0742C32.3136 21.1328 31.8682 21.7724 31.0957 22.2978C30.0917 22.9808 28.971 23.2864 27.8072 23.444C27.2757 23.5161 26.7376 23.5318 26.2037 23.5843C25.9902 23.6051 25.9094 23.5478 25.8726 23.2969C25.6435 21.7537 25.5246 20.1919 25.1993 18.6661C24.8403 16.984 24.0461 15.5507 22.8926 14.3389C22.8348 14.2785 22.7627 14.2312 22.7553 14.1339L22.7549 14.1344Z" fill="#319049"/>
<path id="Vector_4" d="M6.05508 13.2686C7.36681 13.2829 8.30195 13.5382 9.19078 14.0089C9.41043 14.1252 9.39199 14.1925 9.23135 14.3575C7.96387 15.6593 7.17011 17.2445 6.83819 19.0721C6.64313 20.1471 6.5333 21.2396 6.38619 22.3247C6.3366 22.6903 6.28743 23.0558 6.24481 23.4227C6.23006 23.5474 6.17105 23.5947 6.06 23.5895C4.25857 23.5022 2.47968 23.3207 0.922479 22.2131C0.215593 21.7103 -0.163871 21.0937 0.0680697 20.1181C0.313533 19.0847 0.356561 17.9979 0.816753 17.0209C1.96047 14.592 3.84427 13.3984 6.05508 13.269V13.2686Z" fill="#319049"/>
<path id="Vector_5" d="M25.7433 12.4822C24.4651 12.4644 23.4308 11.9108 22.6071 10.8866C22.4867 10.7368 22.4645 10.6217 22.5649 10.4337C23.3632 8.93788 23.6533 7.32656 23.4919 5.62102C23.4759 5.44995 23.4747 5.26672 23.4128 5.11344C23.2481 4.7053 23.4345 4.5225 23.7505 4.33536C26.278 2.83737 29.4662 4.48125 29.8653 7.49894C30.2157 10.1476 28.2782 12.4901 25.7433 12.4827V12.4822Z" fill="#319049"/>
<path id="Vector_6" d="M6.33486 12.478C3.96834 12.4701 2.12306 10.4094 2.24927 7.89324C2.33123 6.2524 3.08811 5.031 4.4441 4.27245C5.83164 3.4961 7.2196 3.60812 8.56575 4.45221C8.76286 4.57596 8.80548 4.72358 8.76204 4.94068C8.37602 6.86723 8.66082 8.68913 9.54925 10.4068C9.66112 10.6231 9.62793 10.749 9.49351 10.9235C8.74114 11.9013 7.5757 12.4819 6.33486 12.478Z" fill="#319049"/>
</g>
</svg>
